<svg width="750" height="500" viewBox="0 0 750 500" fill="none" xmlns="http://www.w3.org/2000/svg">
<mask id="mask0_527_11896" style="mask-type:luminance" maskUnits="userSpaceOnUse" x="0" y="0" width="750" height="500">
<path d="M750 0H0V500H750V0Z" fill="white"/>
</mask>
<g mask="url(#mask0_527_11896)">
<path d="M750 0H0V500H750V0Z" fill="url(#paint0_linear_527_11896)"/>
<path style="mix-blend-mode:multiply" opacity="0.2" d="M682.48 545.29C674.95 523.67 677.02 499.93 681 477.39C684.98 454.84 690.8 432.39 690.5 409.49C690 372.1 672.08 335.26 642.82 311.98C613.56 288.7 573.5 279.53 537.08 288C514.05 293.36 492.4 305.34 468.77 306.31C444.51 307.31 421.46 296.59 397.58 292.21C340.88 281.8 280.11 310.33 248.38 358.46C216.65 406.59 213.64 471.15 236.86 523.91C260.08 576.67 307.68 617.14 362.2 635.89C416.71 654.63 477.38 652.46 532.07 634.23C558.89 625.29 584.42 612.64 611.61 604.93C638.8 597.22 668.84 594.81 694.69 606.25L732.23 586.42C709.34 585.81 690.01 566.91 682.47 545.29H682.48Z" fill="url(#paint1_linear_527_11896)"/>
<path style="mix-blend-mode:multiply" opacity="0.2" d="M232.84 673.78C225.31 652.16 227.38 628.42 231.36 605.88C235.34 583.33 241.16 560.88 240.86 537.98C240.36 500.59 222.44 463.75 193.18 440.47C163.92 417.19 123.86 408.02 87.44 416.49C64.41 421.85 42.76 433.83 19.13 434.8C-5.13002 435.8 -28.18 425.08 -52.06 420.7C-108.76 410.29 -169.53 438.82 -201.26 486.95C-232.99 535.08 -236 599.64 -212.78 652.4C-189.56 705.16 -141.96 745.63 -87.44 764.38C-32.93 783.12 27.74 780.95 82.43 762.72C109.25 753.78 134.78 741.13 161.97 733.42C189.17 725.71 219.2 723.3 245.05 734.74L282.59 714.91C259.7 714.3 240.37 695.4 232.83 673.78H232.84Z" fill="url(#paint2_linear_527_11896)"/>
<path style="mix-blend-mode:multiply" opacity="0.2" d="M852.79 -8.40012C845.25 -30.0201 847.33 -53.7601 851.31 -76.3001C855.29 -98.8501 861.11 -121.3 860.81 -144.2C860.31 -181.59 842.39 -218.43 813.13 -241.71C783.87 -264.99 743.81 -274.16 707.39 -265.69C684.36 -260.33 662.71 -248.35 639.08 -247.38C614.82 -246.38 591.77 -257.1 567.89 -261.48C511.19 -271.89 450.42 -243.36 418.69 -195.23C386.96 -147.1 383.95 -82.5401 407.17 -29.7801C430.39 22.9799 477.99 63.4499 532.51 82.1999C587.02 100.94 647.69 98.7699 702.38 80.5399C729.2 71.5999 754.73 58.9499 781.92 51.2399C809.12 43.5299 839.15 41.1199 865 52.5599L902.54 32.7299C879.65 32.1199 860.32 13.2199 852.78 -8.40012H852.79Z" fill="url(#paint3_linear_527_11896)"/>
<path style="mix-blend-mode:multiply" opacity="0.2" d="M495.82 0C491.57 25.2 481.36 49.39 465.67 69.59C434.71 109.43 383.38 132.54 333.03 129.29C327.68 128.95 322.29 128.34 316.88 127.61C288.6 123.82 259.78 116.91 234.41 128.72C212.87 138.75 199.1 160.27 179.66 173.92C154.23 191.78 120 194.7 90.42 185.17C60.85 175.64 35.79 154.72 17.48 129.61C11.15 120.93 5.55 111.73 0 102.5V0H495.82Z" fill="url(#paint4_linear_527_11896)"/>
<g style="mix-blend-mode:overlay">
<path d="M609.23 0C602.96 5.83 595.7 10.55 587.61 13.67C573 19.32 556.53 20.41 543.27 28.74C525.8 39.71 517.68 60.8 513.28 80.95C508.89 101.11 506.89 122.29 496.96 140.37C476.38 177.88 425.21 190.78 384.64 177.18C357.63 168.12 335.07 149.86 316.88 127.61C307.76 116.45 299.74 104.3 292.82 91.8C277.18 63.55 265.71 32.44 244.26 8.31C241.68 5.4 238.88 2.62 235.92 0L609.23 0Z" fill="#FFCC6D"/>
</g>
<g style="mix-blend-mode:overlay">
<path d="M750 245.81V500.01H384.18C385.41 489.29 387.66 478.69 391.04 468.37C402.45 433.44 427.2 402.85 458.58 384.13C475.16 374.23 493.6 367.64 512.9 365.49C538.03 362.68 566.36 366.07 585.73 349.82C597.38 340.04 603.04 325.11 610.3 311.74C630.98 273.7 669.93 244.58 713.12 241.52C725.51 240.64 738.07 242.19 750 245.81Z" fill="#FFCC6D"/>
</g>
<path style="mix-blend-mode:soft-light" d="M647.26 500.01H161.33C162.79 486.31 166.24 472.77 171.25 459.95C182.97 430.03 206.41 401.51 238.22 396.97C251.94 395.01 265.42 397.67 278.47 402.51C297.17 409.44 318.12 403.79 330.95 388.52C340.01 377.75 351.66 369.13 364.75 363.95C388.99 354.34 417.65 356.69 440 370.1C446.63 374.08 452.71 378.95 458.58 384.13C475.28 398.85 490.29 416.07 511.32 422.47C533.19 429.11 557.09 422.44 579.5 426.92C612.35 433.49 636.49 463.46 646.03 495.57C646.47 497.04 646.88 498.52 647.26 500.01Z" fill="url(#paint5_linear_527_11896)"/>
<g style="mix-blend-mode:overlay">
<path d="M228.649 163.315C232.799 144.956 221.282 126.709 202.923 122.558C184.565 118.407 166.317 129.925 162.167 148.283C158.016 166.642 169.533 184.889 187.892 189.04C206.25 193.191 224.498 181.673 228.649 163.315Z" fill="#FFCC6D"/>
</g>
<g style="mix-blend-mode:overlay">
<path d="M605.274 267.742C610.113 263.46 610.564 256.066 606.282 251.227C601.999 246.388 594.605 245.937 589.766 250.219C584.927 254.502 584.476 261.896 588.759 266.735C593.041 271.574 600.436 272.025 605.274 267.742Z" fill="#FFCC6D"/>
</g>
<g style="mix-blend-mode:overlay">
<path d="M103.38 396.53C103.38 399.76 100.76 402.38 97.53 402.38C94.3 402.38 91.68 399.76 91.68 396.53C91.68 393.3 94.3 390.68 97.53 390.68C100.76 390.68 103.38 393.3 103.38 396.53Z" fill="#FFCC6D"/>
</g>
<g style="mix-blend-mode:overlay">
<path d="M658.96 213.59C658.96 216.82 656.34 219.44 653.11 219.44C649.88 219.44 647.26 216.82 647.26 213.59C647.26 210.36 649.88 207.74 653.11 207.74C656.34 207.74 658.96 210.36 658.96 213.59Z" fill="#FFCC6D"/>
</g>
<path d="M88.7 -12.1605C130.26 -12.2105 171.46 6.92949 198.23 38.7295C221.44 66.3095 233.4 101.529 253.31 131.569C273.22 161.619 306.85 187.969 342.29 181.369C366.62 176.839 385.96 157.429 397.4 135.489C408.84 113.539 413.8 88.9195 419.92 64.9395C426.05 40.9595 433.83 16.6195 449.68 -2.39051C469.78 -26.4805 502.41 -39.4805 533.57 -35.8205" stroke="#B3AEFF" stroke-miterlimit="10"/>
<path d="M102.62 -13.6805C141.58 -13.7305 180.2 4.21947 205.3 34.0195C227.06 59.8695 238.27 92.8895 256.93 121.049C275.6 149.219 307.12 173.919 340.34 167.729C363.15 163.479 381.28 145.289 392 124.719C402.73 104.149 407.37 81.0595 413.11 58.5795C418.85 36.0995 426.15 13.2795 441.01 -4.53053C459.85 -27.1105 490.44 -39.3005 519.65 -35.8605" stroke="#B3AEFF" stroke-miterlimit="10"/>
<path d="M116.54 -15.2001C152.9 -15.2401 188.95 1.49987 212.36 29.3199C232.67 53.4399 243.13 84.2599 260.55 110.54C277.97 136.83 307.39 159.88 338.39 154.1C359.68 150.14 376.59 133.16 386.6 113.96C396.61 94.7599 400.94 73.2199 406.3 52.2399C411.66 31.2599 418.47 9.96987 432.34 -6.66013C449.92 -27.7301 478.47 -39.1101 505.73 -35.9001" stroke="#B3AEFF" stroke-miterlimit="10"/>
<path d="M130.46 -16.7204C164.22 -16.7604 197.69 -1.21037 219.43 24.6096C238.28 47.0096 248 75.6196 264.17 100.02C280.34 124.42 307.66 145.83 336.44 140.47C356.2 136.79 371.91 121.03 381.2 103.2C390.49 85.3796 394.52 65.3696 399.49 45.8996C404.47 26.4196 410.79 6.64963 423.66 -8.79037C439.98 -28.3604 466.49 -38.9204 491.8 -35.9404" stroke="#B3AEFF" stroke-miterlimit="10"/>
<path d="M144.38 -18.2302C175.54 -18.2702 206.43 -3.9202 226.49 19.9198C243.89 40.5898 252.85 66.9998 267.78 89.5198C282.71 112.04 307.92 131.8 334.48 126.85C352.72 123.45 367.22 108.91 375.79 92.4498C384.37 75.9998 388.08 57.5398 392.67 39.5598C397.26 21.5798 403.1 3.3298 414.98 -10.9102C430.05 -28.9702 454.51 -38.7202 477.87 -35.9702" stroke="#B3AEFF" stroke-miterlimit="10"/>
<path d="M306.01 572.54C299.13 547.44 294.12 520.09 303.73 495.91C316.33 464.23 351.28 446.48 385.13 442.42C418.98 438.35 453.07 445.07 487.07 447.66C521.07 450.25 557.48 448.01 585.51 428.58C624.37 401.64 637.13 349.14 672.2 317.41C701.44 290.96 745.58 282.23 782.69 295.58" stroke="#B3AEFF" stroke-miterlimit="10"/>
<path d="M331.76 572.54C325.25 548.8 320.51 522.92 329.6 500.05C341.52 470.08 374.58 453.29 406.6 449.45C438.63 445.6 470.87 451.96 503.03 454.41C535.19 456.86 569.64 454.74 596.15 436.36C632.92 410.87 644.98 361.21 678.16 331.2C705.82 306.18 747.58 297.92 782.68 310.55" stroke="#B3AEFF" stroke-miterlimit="10"/>
<path d="M357.51 572.54C351.38 550.15 346.9 525.76 355.48 504.19C366.72 475.93 397.89 460.1 428.09 456.48C458.29 452.85 488.69 458.85 519.02 461.15C549.35 463.46 581.83 461.46 606.82 444.13C641.49 420.1 652.86 373.27 684.14 344.97C710.22 321.37 749.59 313.59 782.69 325.5" stroke="#B3AEFF" stroke-miterlimit="10"/>
<path d="M383.26 572.54C377.5 551.51 373.29 528.59 381.35 508.33C391.91 481.78 421.19 466.91 449.56 463.51C477.93 460.11 506.49 465.73 534.98 467.9C563.47 470.07 593.98 468.19 617.46 451.91C650.03 429.34 660.71 385.34 690.1 358.76C714.6 336.59 751.59 329.28 782.68 340.47" stroke="#B3AEFF" stroke-miterlimit="10"/>
<path d="M409.01 572.54C403.62 552.86 399.69 531.42 407.22 512.47C417.09 487.63 444.49 473.72 471.03 470.54C497.57 467.35 524.29 472.62 550.94 474.65C577.59 476.68 606.14 474.92 628.11 459.69C658.58 438.57 668.58 397.41 696.07 372.54C718.99 351.8 753.6 344.96 782.68 355.43" stroke="#B3AEFF" stroke-miterlimit="10"/>
<path d="M-7.42997 199.63C-12.45 217.11 -3.50997 236.01 9.45003 248.77C22.41 261.53 39 269.79 54.25 279.71C69.5 289.63 84.24 302.28 90.01 319.53C100.27 350.22 79.32 381.46 69.33 412.24C54.21 458.81 65.99 513.11 99.05 549.23" stroke="#B3AEFF" stroke-miterlimit="10"/>
<path d="M-19.29 203.24C-24.31 220.72 -15.37 239.62 -2.41002 252.38C10.55 265.14 27.14 273.4 42.39 283.32C57.64 293.24 72.38 305.89 78.15 323.14C88.41 353.83 67.46 385.07 57.47 415.85C42.35 462.42 54.13 516.72 87.19 552.84" stroke="#B3AEFF" stroke-miterlimit="10"/>
<path d="M-31.16 206.85C-36.18 224.33 -27.24 243.23 -14.28 255.99C-1.32001 268.75 15.27 277.01 30.52 286.93C45.77 296.85 60.51 309.5 66.28 326.75C76.54 357.44 55.59 388.68 45.6 419.46C30.48 466.03 42.26 520.33 75.32 556.45" stroke="#B3AEFF" stroke-miterlimit="10"/>
<path d="M-43.02 210.46C-48.04 227.94 -39.1 246.84 -26.14 259.6C-13.18 272.36 3.41 280.62 18.66 290.54C33.91 300.46 48.65 313.11 54.42 330.36C64.68 361.05 43.73 392.29 33.74 423.07C18.62 469.64 30.4 523.94 63.46 560.06" stroke="#B3AEFF" stroke-miterlimit="10"/>
<path d="M575.83 -186.86C578.37 -168.85 594.23 -155.23 611.27 -148.86C628.31 -142.49 646.82 -141.7 664.79 -138.86C682.76 -136.02 701.37 -130.46 713.67 -117.06C735.55 -93.2103 729.14 -56.1504 732.55 -23.9704C737.72 24.7196 770.6 69.5097 815.5 89.0297" stroke="#B3AEFF" stroke-miterlimit="10"/>
<path d="M566.47 -178.73C569.01 -160.72 584.87 -147.1 601.91 -140.73C618.95 -134.36 637.46 -133.57 655.43 -130.73C673.39 -127.88 692.01 -122.33 704.31 -108.93C726.19 -85.0805 719.78 -48.0205 723.19 -15.8405C728.36 32.8495 761.24 77.6395 806.14 97.1595" stroke="#B3AEFF" stroke-miterlimit="10"/>
<path d="M557.11 -170.601C559.65 -152.591 575.51 -138.971 592.55 -132.601C609.59 -126.231 628.1 -125.441 646.07 -122.601C664.04 -119.751 682.65 -114.201 694.95 -100.801C716.83 -76.9506 710.42 -39.8906 713.83 -7.71059C719 40.9794 751.88 85.7694 796.78 105.289" stroke="#B3AEFF" stroke-miterlimit="10"/>
<path d="M547.74 -162.47C550.28 -144.46 566.14 -130.84 583.18 -124.47C600.22 -118.1 618.73 -117.31 636.7 -114.47C654.67 -111.62 673.28 -106.07 685.58 -92.6702C707.46 -68.8202 701.05 -31.7602 704.46 0.419785C709.63 49.1098 742.51 93.8998 787.41 113.42" stroke="#B3AEFF" stroke-miterlimit="10"/>
</g>
<defs>
<linearGradient id="paint0_linear_527_11896" x1="375" y1="0" x2="375" y2="500" gradientUnits="userSpaceOnUse">
<stop stop-color="#F2F2FF"/>
<stop offset="1" stop-color="#D3D2FF"/>
</linearGradient>
<linearGradient id="paint1_linear_527_11896" x1="221.66" y1="466.93" x2="732.24" y2="466.93" gradientUnits="userSpaceOnUse">
<stop stop-color="#B3AEFF"/>
<stop offset="1" stop-color="#F2F2FF"/>
</linearGradient>
<linearGradient id="paint2_linear_527_11896" x1="-227.98" y1="595.42" x2="282.6" y2="595.42" gradientUnits="userSpaceOnUse">
<stop stop-color="#B3AEFF"/>
<stop offset="1" stop-color="#F2F2FF"/>
</linearGradient>
<linearGradient id="paint3_linear_527_11896" x1="391.97" y1="-86.7701" x2="902.55" y2="-86.7701" gradientUnits="userSpaceOnUse">
<stop stop-color="#B3AEFF"/>
<stop offset="1" stop-color="#D3D2FF"/>
</linearGradient>
<linearGradient id="paint4_linear_527_11896" x1="0" y1="95.26" x2="495.82" y2="95.26" gradientUnits="userSpaceOnUse">
<stop stop-color="#B3AEFF"/>
<stop offset="1" stop-color="#F2F2FF"/>
</linearGradient>
<linearGradient id="paint5_linear_527_11896" x1="161.33" y1="429.05" x2="647.26" y2="429.05" gradientUnits="userSpaceOnUse">
<stop stop-color="#B3AEFF"/>
<stop offset="1" stop-color="#8D80FF"/>
</linearGradient>
</defs>
</svg>
